# Blender v2.77 (sub 0) OBJ File: ''
# www.blender.org
mtllib cube.mtl
o cube
v 60.000000 -60.000011 59.999989
v -60.000000 -60.000011 59.999989
v -60.000000 -59.999989 -60.000011
v 60.000000 -59.999989 -60.000011
v -60.000000 59.999989 60.000011
v 60.000000 59.999989 60.000011
v 60.000000 60.000011 -59.999989
v -60.000000 60.000011 -59.999989
vt 1.0000 0.0000
vt 0.0000 0.0000
vt 0.0000 1.0000
vt 1.0000 1.0000
vt 1.0000 0.0000
vt 0.0000 0.0000
vt 0.0000 1.0000
vt 1.0000 1.0000
vt 1.0000 0.0000
vt 0.0000 0.0000
vt 0.0000 1.0000
vn 0.0000 -1.0000 -0.0000
vn 0.0000 1.0000 0.0000
vn 1.0000 0.0000 0.0000
vn 0.0000 0.0000 -1.0000
vn -1.0000 -0.0000 0.0000
vn 0.0000 -0.0000 1.0000
usemtl material_0
s 1
f 1/1/1 2/2/1 3/3/1
f 1/1/1 3/3/1 4/4/1
f 5/5/2 6/6/2 7/7/2
f 5/5/2 7/7/2 8/8/2
f 6/6/3 1/1/3 4/4/3
f 6/6/3 4/4/3 7/7/3
f 7/9/4 4/10/4 3/3/4
f 7/9/4 3/3/4 8/8/4
f 8/8/5 3/3/5 2/2/5
f 8/8/5 2/2/5 5/5/5
f 5/11/6 2/2/6 1/1/6
f 5/11/6 1/1/6 6/6/6
